<?xml version="1.0" encoding="UTF-8"?>
<svg xmlns="http://www.w3.org/2000/svg" version="1.1" width="200" height="200" viewBox="0 0 200 200"><rect x="0" y="0" width="200" height="200" fill="#ffffff"/><g transform="scale(8)"><g transform="translate(0,0)"><path fill-rule="evenodd" d="M8 0L8 1L9 1L9 2L8 2L8 5L9 5L9 6L8 6L8 7L9 7L9 8L8 8L8 9L7 9L7 8L6 8L6 9L7 9L7 10L4 10L4 8L0 8L0 13L2 13L2 14L1 14L1 15L0 15L0 16L1 16L1 15L4 15L4 16L2 16L2 17L5 17L5 16L6 16L6 17L8 17L8 18L10 18L10 19L11 19L11 18L12 18L12 17L16 17L16 19L15 19L15 18L13 18L13 19L12 19L12 20L11 20L11 21L12 21L12 20L13 20L13 21L15 21L15 22L16 22L16 23L17 23L17 24L18 24L18 25L25 25L25 24L23 24L23 23L24 23L24 22L25 22L25 15L24 15L24 14L25 14L25 12L23 12L23 11L20 11L20 9L23 9L23 10L24 10L24 9L25 9L25 8L24 8L24 9L23 9L23 8L20 8L20 9L19 9L19 11L18 11L18 10L17 10L17 9L18 9L18 8L17 8L17 5L16 5L16 4L17 4L17 2L15 2L15 0L13 0L13 1L14 1L14 2L13 2L13 4L14 4L14 2L15 2L15 3L16 3L16 4L15 4L15 5L16 5L16 8L17 8L17 9L16 9L16 11L15 11L15 9L14 9L14 11L12 11L12 10L11 10L11 12L13 12L13 13L14 13L14 11L15 11L15 14L19 14L19 15L16 15L16 16L13 16L13 15L14 15L14 14L13 14L13 15L12 15L12 16L10 16L10 14L11 14L11 13L10 13L10 12L9 12L9 11L7 11L7 10L10 10L10 9L9 9L9 8L10 8L10 7L11 7L11 9L13 9L13 8L12 8L12 7L13 7L13 6L14 6L14 8L15 8L15 6L14 6L14 5L13 5L13 6L12 6L12 7L11 7L11 6L10 6L10 3L11 3L11 2L12 2L12 1L11 1L11 2L10 2L10 0ZM9 2L9 3L10 3L10 2ZM9 6L9 7L10 7L10 6ZM2 9L2 10L1 10L1 12L2 12L2 13L3 13L3 14L4 14L4 15L6 15L6 16L8 16L8 17L9 17L9 14L10 14L10 13L9 13L9 12L7 12L7 11L4 11L4 10L3 10L3 9ZM2 11L2 12L3 12L3 11ZM19 11L19 13L20 13L20 11ZM4 12L4 13L5 13L5 14L6 14L6 15L7 15L7 14L6 14L6 13L7 13L7 12L6 12L6 13L5 13L5 12ZM21 12L21 14L20 14L20 15L22 15L22 16L24 16L24 15L22 15L22 14L24 14L24 13L22 13L22 12ZM10 17L10 18L11 18L11 17ZM17 17L17 20L20 20L20 17ZM21 17L21 18L24 18L24 17ZM18 18L18 19L19 19L19 18ZM13 19L13 20L15 20L15 21L16 21L16 22L17 22L17 21L16 21L16 20L15 20L15 19ZM21 19L21 22L22 22L22 21L23 21L23 19ZM9 20L9 21L8 21L8 25L9 25L9 24L10 24L10 25L15 25L15 23L14 23L14 22L11 22L11 23L9 23L9 21L10 21L10 20ZM19 21L19 22L20 22L20 21ZM12 23L12 24L13 24L13 23ZM19 23L19 24L20 24L20 23ZM21 23L21 24L22 24L22 23ZM0 0L0 7L7 7L7 0ZM1 1L1 6L6 6L6 1ZM2 2L2 5L5 5L5 2ZM18 0L18 7L25 7L25 0ZM19 1L19 6L24 6L24 1ZM20 2L20 5L23 5L23 2ZM0 18L0 25L7 25L7 18ZM1 19L1 24L6 24L6 19ZM2 20L2 23L5 23L5 20Z" fill="#000000"/></g></g></svg>
