<?xml version="1.0" encoding="UTF-8"?>
<svg xmlns="http://www.w3.org/2000/svg" version="1.1" width="200" height="200" viewBox="0 0 200 200"><rect x="0" y="0" width="200" height="200" fill="#ffffff"/><g transform="scale(8)"><g transform="translate(0,0)"><path fill-rule="evenodd" d="M9 0L9 1L8 1L8 3L9 3L9 4L8 4L8 8L6 8L6 9L5 9L5 11L7 11L7 12L5 12L5 13L4 13L4 10L3 10L3 9L4 9L4 8L3 8L3 9L2 9L2 8L0 8L0 9L2 9L2 10L3 10L3 11L0 11L0 12L1 12L1 14L0 14L0 15L1 15L1 16L0 16L0 17L5 17L5 15L7 15L7 14L8 14L8 13L9 13L9 12L10 12L10 13L12 13L12 14L11 14L11 15L10 15L10 14L9 14L9 15L8 15L8 16L6 16L6 17L8 17L8 19L9 19L9 21L8 21L8 22L9 22L9 23L8 23L8 25L10 25L10 22L9 22L9 21L11 21L11 22L16 22L16 23L13 23L13 24L15 24L15 25L17 25L17 24L18 24L18 25L20 25L20 24L19 24L19 23L17 23L17 22L16 22L16 21L19 21L19 22L20 22L20 23L21 23L21 24L22 24L22 23L23 23L23 21L22 21L22 22L21 22L21 20L25 20L25 17L24 17L24 18L23 18L23 16L24 16L24 15L25 15L25 12L23 12L23 13L22 13L22 12L21 12L21 14L22 14L22 15L20 15L20 16L17 16L17 15L19 15L19 14L20 14L20 13L19 13L19 9L21 9L21 8L18 8L18 9L16 9L16 11L17 11L17 15L16 15L16 16L14 16L14 15L13 15L13 13L14 13L14 14L15 14L15 9L14 9L14 8L12 8L12 7L13 7L13 6L14 6L14 7L15 7L15 8L16 8L16 7L17 7L17 6L16 6L16 4L17 4L17 0L15 0L15 3L16 3L16 4L15 4L15 5L14 5L14 4L13 4L13 1L14 1L14 0L13 0L13 1L12 1L12 0ZM10 1L10 2L9 2L9 3L10 3L10 5L9 5L9 8L8 8L8 9L6 9L6 10L8 10L8 11L11 11L11 12L13 12L13 10L11 10L11 8L10 8L10 5L11 5L11 7L12 7L12 5L11 5L11 3L12 3L12 2L11 2L11 1ZM10 2L10 3L11 3L11 2ZM15 6L15 7L16 7L16 6ZM22 8L22 9L24 9L24 10L23 10L23 11L25 11L25 9L24 9L24 8ZM9 9L9 10L10 10L10 9ZM17 10L17 11L18 11L18 10ZM7 12L7 13L5 13L5 14L7 14L7 13L8 13L8 12ZM3 13L3 14L1 14L1 15L2 15L2 16L4 16L4 13ZM23 13L23 15L22 15L22 16L23 16L23 15L24 15L24 13ZM12 15L12 17L13 17L13 18L11 18L11 16L8 16L8 17L9 17L9 18L11 18L11 20L12 20L12 21L13 21L13 20L14 20L14 19L15 19L15 21L16 21L16 19L15 19L15 18L14 18L14 16L13 16L13 15ZM17 17L17 20L20 20L20 17ZM13 18L13 19L14 19L14 18ZM18 18L18 19L19 19L19 18ZM21 18L21 19L23 19L23 18ZM24 22L24 23L25 23L25 22ZM11 23L11 24L12 24L12 23ZM23 24L23 25L25 25L25 24ZM0 0L0 7L7 7L7 0ZM1 1L1 6L6 6L6 1ZM2 2L2 5L5 5L5 2ZM18 0L18 7L25 7L25 0ZM19 1L19 6L24 6L24 1ZM20 2L20 5L23 5L23 2ZM0 18L0 25L7 25L7 18ZM1 19L1 24L6 24L6 19ZM2 20L2 23L5 23L5 20Z" fill="#000000"/></g></g></svg>
